<?xml version="1.0" encoding="UTF-8" standalone="no"?>
<svg width="91px" height="20px" viewBox="0 0 91 20" version="1.1" xmlns="http://www.w3.org/2000/svg" xmlns:xlink="http://www.w3.org/1999/xlink">
    <!-- Generator: Sketch 39.1 (31720) - http://www.bohemiancoding.com/sketch -->
    <title>Artboard 17</title>
    <desc>Created with Sketch.</desc>
    <defs></defs>
    <g id="Page-6" stroke="none" stroke-width="1" fill="none" fill-rule="evenodd">
        <g id="Artboard-17" fill="#FFFFFF">
            <g id="Group" transform="translate(1.000000, 0.000000)">
                <text id="ChainCloud-Copy" font-family="Oswald-Bold, Oswald" font-size="13" font-style="condensed" font-weight="bold">
                    <tspan x="29" y="16">ChainCloud</tspan>
                </text>
                <g id="Group-52-Copy-10" transform="translate(0.000000, 1.000000)">
                    <path d="M7.89445716,14.8725907 L13.2971429,14.8725907 C13.2971429,14.8725907 14.2821164,15.129834 14.2821164,16.1126222 C14.2821164,17.0954104 13.2971429,17.3466021 13.2971429,17.3466021 L7.89445716,17.3466021 L6.90551582,17.3466021 L4.95291278,17.3466021 L4.10383256,17.2422194 C1.68320068,16.6279597 0.216299757,14.4928241 0.024763766,12.418639 C-0.275064823,9.05796304 2.2161555,6.96399903 3.79509515,6.58048005 C3.83128605,5.73544953 4.16938984,4.95670363 4.36594569,4.67268721 C4.56250154,4.38867079 5.03023811,3.45647182 6.63543079,2.93098407 C7.26642946,2.72441567 8.53419815,2.66508928 9.55728651,3.26600727 C10.1415434,2.14155881 12.2014572,0.213345097 15.2277728,0.213345097 C18.6364041,0.213345097 21.7628658,2.44333381 22.0225662,6.61203407 C23.7040164,7.24196482 25.8894264,8.90077437 25.7312559,12.3038888 C25.4584009,14.6437872 24.0764182,16.3181677 22.022567,17.1530728 C21.5417225,17.3070008 20.9581618,17.3466021 20.9581618,17.3466021 C20.9581615,17.3466021 20.6904318,17.3466021 20.6904318,17.3466021 C20.6904318,17.3466021 19.7053023,17.1036392 19.7053023,16.1126222 C19.7053023,15.1216052 20.6904318,14.8725907 20.6904318,14.8725907 C20.6904318,14.8725907 20.9581625,14.7396293 21.0181896,14.7083776 C21.7274472,14.3391197 23.3840739,13.3278061 23.3840739,11.390577 C23.3070928,8.7852074 21.2569483,8.06993257 19.9517009,7.83979896 C19.8153495,7.81575827 19.7052075,7.52248349 19.7053023,7.51893934 C19.7872052,4.38104661 17.0381666,2.99723843 16.1554538,2.8637011 C15.6986171,2.78077726 14.7324604,2.44348508 13.1059375,3.12445286 C11.1955674,4.0059384 10.6455477,5.84584038 10.5588875,5.99042011 C10.4876477,6.1501869 10.3128245,6.37494027 9.9560241,6.15693619 C9.77117623,5.74891218 8.49186489,4.35049134 6.82673116,5.21010387 C5.53581704,6.04617947 5.64236675,7.12795554 5.69652753,7.51893934 C5.71615512,7.66062989 5.846026,7.74897708 5.69652753,7.92365867 C4.29846808,7.96295749 2.29831168,9.25316287 2.46246392,11.6431604 C2.56322171,13.2175089 3.67771952,14.3961048 4.95291278,14.7396291 C5.4760898,14.9038422 5.96539031,14.8725907 5.96539031,14.8725907 L6.90551582,14.8725907" id="Combined-Shape"></path>
                    <path d="M16.9907937,17.5961905 C17.8067725,17.5961905 18.468254,16.930437 18.468254,16.1091885 C18.468254,15.2879399 17.8067725,14.6221865 16.9907937,14.6221865 C16.1748148,14.6221865 15.5133333,15.2879399 15.5133333,16.1091885 C15.5133333,16.930437 16.1748148,17.5961905 16.9907937,17.5961905 Z" id="Oval-255-Copy"></path>
                </g>
            </g>
        </g>
    </g>
</svg>